<?xml version="1.0" encoding="utf-8"?>
<svg version="1.1" id="Ebene_1" xmlns="http://www.w3.org/2000/svg" xmlns:xlink="http://www.w3.org/1999/xlink" x="0px" y="0px"
	 viewBox="0 0 128 128" style="enable-background:new 0 0 128 128;" xml:space="preserve">
<g>
	<path style="fill:#424242;" d="M125.2,16.5c1.6-1.6,1.6-4.1,0-5.7l-8-8c-1.6-1.6-4.1-1.6-5.7,0L66.8,47.5c-1.6,1.6-4.1,1.6-5.7,0
		L16.5,2.8c-1.6-1.6-4.1-1.6-5.7,0l-8,8c-1.6,1.6-1.6,4.1,0,5.7l44.7,44.7c1.6,1.6,1.6,4.1,0,5.7L2.8,111.5c-1.6,1.6-1.6,4.1,0,5.7
		l8,8c1.6,1.6,4.1,1.6,5.7,0l44.7-44.7c1.6-1.6,4.1-1.6,5.7,0l44.7,44.7c1.6,1.6,4.1,1.6,5.7,0l8-8c1.6-1.6,1.6-4.1,0-5.7L80.5,66.8
		c-1.6-1.6-1.6-4.1,0-5.7L125.2,16.5z"/>
</g>
</svg>
